<svg version="1" xmlns="http://www.w3.org/2000/svg" width="346.667" height="346.667" viewBox="0 0 260.000000 260.000000"><path d="M1 131v99h27v-70.8c0-40.1.4-70.1.9-69.2.5.8 8.8 31 18.6 67 9.7 36 18.1 67.2 18.7 69.2l1.1 3.8H99V32H71l-.2 57.4-.3 57.4L55 89.4 39.6 32H1v99zM121.2 130.7l.3 98.8H151c24.8-.1 30.5-.4 36-1.8 13.3-3.6 22.6-11.9 27.3-24.3 2-5.5 2.2-7.6 2.2-29.4 0-22.2-.2-23.8-2.3-29.3-3.2-7.9-7.8-13.6-13.9-17.3l-5.2-3.1 4.3-3c5.3-3.8 9.8-10.2 12.3-17.4 2.5-7.6 2.6-37.7.1-45.9-3.6-11.7-11.2-19.3-23.2-23.4-5.5-1.8-9.1-2-36.9-2.4l-30.7-.4.2 98.9zm53.5-68.8c6.4 3 7.7 6.2 8.1 21.5.4 14-.5 19.5-4.1 23.4-3.9 4.3-7 5.2-17.2 5.2H152V86.7c0-14 .3-25.7.7-26 .3-.4 4.5-.7 9.2-.7 6.3 0 9.7.6 12.8 1.9zm4 81.7c6.1 4.6 6.8 7.1 7.1 27.2.3 16.9.2 18.6-1.8 22.6-3.1 6.4-6.2 7.6-20.4 7.6H152v-60.2l11.9.4c10.3.3 12.4.6 14.8 2.4zM229 215v15h30v-30h-30v15z"/></svg>